<svg id="Group_46" data-name="Group 46" xmlns="http://www.w3.org/2000/svg" viewBox="0 0 100.9 87.378">
  <defs>
    <style>
      .cls-1 {
        fill: #b17d69;
      }
    </style>
  </defs>
  <path id="Path_1" data-name="Path 1" class="cls-1" d="M70.918,8.625A23.876,23.876,0,0,0,69.053,6.2a45.333,45.333,0,0,1-37.488,0A23.875,23.875,0,0,0,29.7,8.625a47.662,47.662,0,0,0,41.218,0" transform="translate(-2.004 -0.418)"/>
  <path id="Path_2" data-name="Path 2" class="cls-1" d="M65.288,2.052A23.267,23.267,0,0,0,62.024.093,35.56,35.56,0,0,1,39.364,0,23.266,23.266,0,0,0,36.1,1.958a39.013,39.013,0,0,0,29.188.093" transform="translate(-2.436)"/>
  <path id="Path_3" data-name="Path 3" class="cls-1" d="M73.985,30.272c.28-1.026.466-2.052.653-3.077a31.613,31.613,0,0,0-8.766-3.264,16.11,16.11,0,0,0-7.833.933c-5.315,1.679-6.341-1.958-6.528-3.357A54.942,54.942,0,0,0,74.078,16.1a24.751,24.751,0,0,0-1.026-2.8,52.785,52.785,0,0,1-45.88,0c-.373.933-.746,1.865-1.026,2.8a54.593,54.593,0,0,0,22.567,5.409,4.816,4.816,0,0,1-3.077,3.823c-1.679.56-3.637.093-5.968-.56-2.238-.56-4.756-1.306-7.367-.933a17.5,17.5,0,0,0-6.9,2.984,31.725,31.725,0,0,0,.653,3.171,17.427,17.427,0,0,1,6.621-3.171,10.135,10.135,0,0,1,1.679-.093,11.38,11.38,0,0,1-1.865,4.849,20.757,20.757,0,0,1-4.01,4.1A19.686,19.686,0,0,0,30.156,38.2a10.66,10.66,0,0,0,1.585-1.4,8.594,8.594,0,0,0,5.129,1.772V35.587a5.659,5.659,0,0,1-2.984-.933,5.689,5.689,0,0,0,1.119-1.492,14.992,14.992,0,0,0,2.331-5.968c.56.093,1.026.28,1.492.373a22.3,22.3,0,0,0,4.2.839c-1.679,2.891-4.01,8.206-5.129,16.413l2.8,1.4a49.7,49.7,0,0,1,1.212-6.434c1.492.746,4.29,2.8,4.849,8.02,1.026.093,1.958.187,2.984.187-.373-4.756-2.238-7.46-3.917-9.046A11.782,11.782,0,0,0,42.652,36.8c2.8-8.3,6.994-10.631,7.367-10.631a25.021,25.021,0,0,1,4.476,5.315,19.367,19.367,0,0,0-6.528,5.409L50.3,38.758a17.859,17.859,0,0,1,5.409-4.569c.933,3.357.466,7.74-.746,13.335a33.355,33.355,0,0,0,3.264-.839c.187-1.119.466-2.238.56-3.264a16,16,0,0,0,3.637,1.306,28,28,0,0,0,3.45-2.331,16.9,16.9,0,0,1-6.621-2.238,17.256,17.256,0,0,0-1.212-8.673,13.761,13.761,0,0,0-1.585-3.077,14.108,14.108,0,0,1,9.139-1.865,14.906,14.906,0,0,1,1.958.466,11.946,11.946,0,0,0-1.026,4.849,3.588,3.588,0,0,1-2.7-2.238l-2.891.839a5.919,5.919,0,0,0,4.1,4.01,16.814,16.814,0,0,0,1.772.466A12.779,12.779,0,0,0,69.042,39.6a17.626,17.626,0,0,0,1.865-2.518,9.355,9.355,0,0,1-.653-9.046,32.854,32.854,0,0,0,3.73,2.238" transform="translate(-1.714 -0.897)"/>
  <path id="Path_4" data-name="Path 4" class="cls-1" d="M20.143,69.672l-.187-1.679H8.673c.373.373.653.933.653,2.984V88.6c0,2.052-.28,2.611-.653,2.984H19.956l.187-1.679-7.367.466V80.4l7.087.28V79l-7.18.187V69.206ZM42.9,70.977c-.28-1.958-.093-2.611.28-2.984H38.234c.373.373.373.933-.093,2.891l-4.01,14.454L27.6,67.993H23.686l1.119,2.8a10.287,10.287,0,0,1,.187,5.036L22.567,91.68h1.679L26.3,74.894,32.732,91.68h.653L34.69,87.2h0L39.353,71.63,41.777,88.7c.28,1.958.093,2.611-.28,2.984H46.44c-.373-.373-.839-1.026-1.119-2.984ZM4.756,67.993H0c.373.373.653,1.026.653,2.984V88.6c0,2.052-.28,2.611-.653,2.984H4.756C4.383,91.213,4.1,90.56,4.1,88.6V70.977c0-2.052.28-2.611.653-2.984m66.3,2.145c0-.746.28-1.119,1.119-1.119,3.544,0,6.155,3.171,6.155,7.926,0,5.129-2.8,8.3-7.274,8.3V70.138Zm-4.1,21.541h4.756c-.373-.373-.653-1.026-.653-2.984V86.271c6.621,0,10.817-3.544,10.817-9.325,0-5.5-4.01-8.952-9.7-8.952H67.049c.373.373.653,1.026.653,2.984V88.6c0,2.052-.373,2.7-.746,3.077m27.23-6.155a2.582,2.582,0,0,1-.839.093c-2.7,0-3.357-1.212-5.6-1.212a4.065,4.065,0,0,0-3.637,1.958l5.222-13.242Zm-6.714-11.47L80.291,91.68h1.679L83,89.068a3.234,3.234,0,0,1,3.077-1.958c2.145,0,3.171,1.212,5.782,1.212a3.37,3.37,0,0,0,2.891-1.4l.746,1.958c.746,1.865.839,2.425.466,2.8H100.9a6.85,6.85,0,0,1-1.772-2.8L90.735,67.993H87.192l.653,1.679a5.305,5.305,0,0,1-.373,4.383M56.138,72.283c0-1.865,1.306-3.264,3.917-3.264a5.457,5.457,0,0,1,3.73,1.4l-.28-2.052a14.921,14.921,0,0,0-3.637-.466c-4.1,0-7.18,1.958-7.18,5.6,0,5.5,8.579,8.859,8.579,13.708,0,2.238-1.772,3.544-4.2,3.544A6.037,6.037,0,0,1,52.5,88.975l.187,2.238a14.079,14.079,0,0,0,4.476.746c4.29,0,7.46-2.145,7.46-5.688.093-5.968-8.486-9.419-8.486-13.988" transform="translate(0 -4.581)"/>
</svg>
